<svg width="99" height="53" viewBox="0 0 99 53" fill="none" xmlns="http://www.w3.org/2000/svg">
<path d="M11.0044 31.7823H6.47526L5.62037 33.7968H4.0379L8.02135 24.8934H9.58562L13.5145 33.7968H11.8957L11.0408 31.7823H11.0044ZM10.4223 30.4513L8.73073 26.4942L7.03913 30.4513H10.4405H10.4223Z" fill="#F6921E"/>
<path d="M19.4988 27.0339V28.0051L15.5881 32.5917H19.6079V33.7968H13.751V32.7896L17.6617 28.203H13.8601V27.0159H19.4806L19.4988 27.0339Z" fill="#F6921E"/>
<path d="M24.8465 33.7788V32.9514C24.3554 33.545 23.5733 33.8508 22.5729 33.8508C21.0995 33.8508 20.1719 32.9514 20.1719 31.7463C20.1719 30.5412 21.1177 29.7318 22.7547 29.7139H24.8283V29.516C24.8283 28.6706 24.2826 28.149 23.1913 28.149C22.5365 28.149 21.8453 28.3829 21.1723 28.8325L20.572 27.8073C21.5179 27.2497 22.2273 26.9619 23.5187 26.9619C25.2831 26.9619 26.2653 27.8612 26.2835 29.3361V33.7788H24.8465ZM24.8465 31.4046V30.7751H22.9912C22.0272 30.7751 21.5724 31.0269 21.5724 31.6744C21.5724 32.2859 22.0817 32.6816 22.9003 32.6816C23.9552 32.6816 24.7738 32.142 24.8465 31.4046Z" fill="#F6921E"/>
<path d="M34.4867 24.3538V33.7968H33.0134V32.6456C32.5223 33.437 31.7037 33.8687 30.6124 33.8687C28.6479 33.8687 27.3383 32.4478 27.3383 30.3973C27.3383 28.3468 28.6661 26.9799 30.5942 26.9799C31.7037 26.9799 32.5223 27.4295 33.0316 28.2209V24.3718H34.5049L34.4867 24.3538ZM33.0134 30.4333C33.0134 29.1203 32.1585 28.203 30.9216 28.203C29.6847 28.203 28.8298 29.1383 28.8116 30.4333C28.8116 31.7103 29.6665 32.6276 30.9216 32.6276C32.1767 32.6276 33.0134 31.7103 33.0134 30.4333Z" fill="#F6921E"/>
<path d="M38.0154 25.0913C38.0154 25.5949 37.6335 25.9547 37.1605 25.9547C36.6876 25.9547 36.3056 25.5769 36.3056 25.0913C36.3056 24.6057 36.6876 24.21 37.1605 24.21C37.6335 24.21 38.0154 24.5877 38.0154 25.0913ZM37.8881 27.0339V33.7968H36.4148V27.0339H37.8881Z" fill="#F6921E"/>
<path fill-rule="evenodd" clip-rule="evenodd" d="M19.5715 10.6302L22.6819 13.9037L23.3549 14.8211L24.0097 15.7204L23.2094 14.947L22.3909 14.1735L19.5715 10.6302Z" fill="#6B6B6B"/>
<path fill-rule="evenodd" clip-rule="evenodd" d="M20.9723 9.69489L23.1913 13.6339L23.5915 14.6772L24.0099 15.7204L23.4278 14.7671L22.8276 13.8138L20.9723 9.69489Z" fill="#6B6B6B"/>
<path fill-rule="evenodd" clip-rule="evenodd" d="M22.5909 9.17328L23.7368 13.508L23.8823 14.6232L24.0097 15.7204L23.6823 14.6592L23.3367 13.58L22.5909 9.17328Z" fill="#6B6B6B"/>
<path fill-rule="evenodd" clip-rule="evenodd" d="M24.3007 9.08331L24.3189 13.544L24.1552 14.6232L24.0097 15.7204L23.9551 14.6232L23.9005 13.508L24.3007 9.08331Z" fill="#6B6B6B"/>
<path fill-rule="evenodd" clip-rule="evenodd" d="M25.9743 9.461L24.8648 13.7238L24.4464 14.7131L24.0099 15.7203L24.2463 14.6591L24.4646 13.5799L25.9743 9.461Z" fill="#6B6B6B"/>
<path fill-rule="evenodd" clip-rule="evenodd" d="M27.5386 10.2704L25.3559 14.0296L24.6829 14.875L24.0099 15.7204L24.5192 14.7671L25.0103 13.7958L27.5386 10.2704Z" fill="#6B6B6B"/>
<path fill-rule="evenodd" clip-rule="evenodd" d="M28.8482 11.4395L25.756 14.4613L24.8829 15.0908L24.0099 15.7203L24.7556 14.9289L25.4832 14.1375L28.8482 11.4395Z" fill="#6B6B6B"/>
<path fill-rule="evenodd" clip-rule="evenodd" d="M29.8486 12.8964L26.0471 14.9829L25.0285 15.3426L24.0099 15.7203L24.9375 15.1627L25.847 14.6051L29.8486 12.8964Z" fill="#6B6B6B"/>
<path fill-rule="evenodd" clip-rule="evenodd" d="M30.4307 14.5512L26.1926 15.5405L25.1012 15.6304L24.0099 15.7203L25.0648 15.4326L26.1016 15.1268L30.4307 14.5512Z" fill="#6B6B6B"/>
<path fill-rule="evenodd" clip-rule="evenodd" d="M30.5762 16.296L26.1926 16.1161L25.1012 15.9182L24.0099 15.7204H25.1012L26.1926 15.7024L30.5762 16.296Z" fill="#6B6B6B"/>
<path fill-rule="evenodd" clip-rule="evenodd" d="M30.2851 17.9866L26.0289 16.6736L25.0285 16.206L24.0099 15.7203L25.083 16.0081L26.1562 16.2779L30.2851 17.9866Z" fill="#6B6B6B"/>
<path fill-rule="evenodd" clip-rule="evenodd" d="M29.5576 19.5335L25.7378 17.1593L24.8829 16.4398L24.0099 15.7203L24.9921 16.2779L25.9561 16.8175L29.5576 19.5335Z" fill="#6B6B6B"/>
<path fill-rule="evenodd" clip-rule="evenodd" d="M28.4662 20.8105L25.3377 17.555L24.6829 16.6377L24.0099 15.7203L24.8284 16.5117L25.6469 17.2852L28.4662 20.8105Z" fill="#6B6B6B"/>
<path fill-rule="evenodd" clip-rule="evenodd" d="M27.0475 21.7458L24.8466 17.8068L24.4282 16.7636L24.0099 15.7203L24.6101 16.6736L25.2103 17.6449L27.0475 21.7458Z" fill="#6B6B6B"/>
<path fill-rule="evenodd" clip-rule="evenodd" d="M25.4468 22.2854L24.2827 17.9327L24.1554 16.8355L24.0099 15.7203L24.3555 16.7995L24.6829 17.8607L25.4468 22.2854Z" fill="#6B6B6B"/>
<path fill-rule="evenodd" clip-rule="evenodd" d="M23.737 22.3574L23.7188 17.9147L23.8643 16.8175L24.0098 15.7203L24.0644 16.8355L24.119 17.9507L23.737 22.3574Z" fill="#6B6B6B"/>
<path fill-rule="evenodd" clip-rule="evenodd" d="M22.0453 21.9797L23.173 17.7348L23.5914 16.7276L24.0097 15.7203L23.7915 16.7995L23.555 17.8787L22.0453 21.9797Z" fill="#6B6B6B"/>
<path fill-rule="evenodd" clip-rule="evenodd" d="M20.481 21.1883L22.6638 17.4111L23.3368 16.5657L24.0098 15.7203L23.5187 16.6916L23.0094 17.6629L20.481 21.1883Z" fill="#6B6B6B"/>
<path fill-rule="evenodd" clip-rule="evenodd" d="M19.1714 20.0191L22.2636 16.9794L23.1367 16.3499L24.0098 15.7203L23.2822 16.5117L22.5364 17.3032L19.1714 20.0191Z" fill="#6B6B6B"/>
<path fill-rule="evenodd" clip-rule="evenodd" d="M18.1892 18.5442L21.9908 16.4758L22.9912 16.0981L24.0098 15.7203L23.1003 16.2779L22.1727 16.8535L18.1892 18.5442Z" fill="#6B6B6B"/>
<path fill-rule="evenodd" clip-rule="evenodd" d="M17.589 16.8895L21.8452 15.9002L22.9184 15.8103L24.0098 15.7203L22.973 16.0261L21.9362 16.3139L17.589 16.8895Z" fill="#6B6B6B"/>
<path fill-rule="evenodd" clip-rule="evenodd" d="M17.4435 15.1628L21.8452 15.3247L22.9366 15.5225L24.0098 15.7204L22.9184 15.7384H21.8271L17.4435 15.1628Z" fill="#6B6B6B"/>
<path fill-rule="evenodd" clip-rule="evenodd" d="M17.7345 13.454L21.9908 14.785L23.0093 15.2527L24.0098 15.7203L22.9366 15.4506L21.8634 15.1628L17.7345 13.454Z" fill="#6B6B6B"/>
<path fill-rule="evenodd" clip-rule="evenodd" d="M18.4621 11.9251L22.2818 14.2993L23.1549 15.0008L24.0098 15.7203L23.0458 15.1807L22.0635 14.6231L18.4621 11.9251Z" fill="#6B6B6B"/>
<path fill-rule="evenodd" clip-rule="evenodd" d="M21.7179 9.42498C21.8816 9.35304 22.0817 9.42498 22.1545 9.58686C22.2454 9.74874 22.1727 9.94659 22.009 10.0365C21.8453 10.1085 21.6452 10.0365 21.5724 9.87465C21.4815 9.71277 21.5542 9.51492 21.6998 9.42498H21.7179Z" fill="#6B6B6B"/>
<path fill-rule="evenodd" clip-rule="evenodd" d="M23.3731 9.10124C23.555 9.06526 23.7187 9.19117 23.7733 9.37104C23.8097 9.5509 23.7005 9.73077 23.5186 9.74876C23.3368 9.78473 23.173 9.65882 23.1367 9.47896C23.1003 9.29909 23.2094 9.11923 23.3913 9.08325L23.3731 9.10124Z" fill="#6B6B6B"/>
<path fill-rule="evenodd" clip-rule="evenodd" d="M25.083 9.24505C25.2649 9.24505 25.4104 9.42492 25.3922 9.60478C25.3922 9.78465 25.2285 9.92854 25.0466 9.91056C24.8647 9.91056 24.7192 9.73069 24.7374 9.55082C24.7374 9.37096 24.9011 9.22706 25.083 9.24505Z" fill="#6B6B6B"/>
<path fill-rule="evenodd" clip-rule="evenodd" d="M26.7199 9.82063C26.9018 9.87459 26.9927 10.0724 26.9382 10.2523C26.8836 10.4142 26.7017 10.5221 26.5198 10.4502C26.3561 10.3962 26.247 10.1983 26.3015 10.0185C26.3561 9.83861 26.538 9.76667 26.7199 9.82063Z" fill="#6B6B6B"/>
<path fill-rule="evenodd" clip-rule="evenodd" d="M28.1751 10.792C28.3206 10.8999 28.3751 11.0977 28.266 11.2596C28.1751 11.4035 27.975 11.4575 27.8113 11.3495C27.6476 11.2416 27.6112 11.0438 27.7021 10.8819C27.7931 10.738 28.0114 10.702 28.1569 10.8099L28.1751 10.792Z" fill="#6B6B6B"/>
<path fill-rule="evenodd" clip-rule="evenodd" d="M29.3391 12.1049C29.4665 12.2488 29.4483 12.4467 29.3209 12.5726C29.1936 12.6985 28.9753 12.6805 28.8662 12.5366C28.7389 12.3927 28.7571 12.1948 28.8844 12.0689C29.0117 11.943 29.23 11.961 29.3573 12.1049H29.3391Z" fill="#6B6B6B"/>
<path fill-rule="evenodd" clip-rule="evenodd" d="M30.1395 13.6698C30.2304 13.8317 30.1577 14.0295 29.9939 14.1195C29.8302 14.1914 29.6302 14.1195 29.5574 13.9576C29.4846 13.7957 29.5392 13.5979 29.7029 13.5079C29.8666 13.436 30.0667 13.5079 30.1395 13.6698Z" fill="#6B6B6B"/>
<path fill-rule="evenodd" clip-rule="evenodd" d="M30.5214 15.3605C30.5578 15.5404 30.4486 15.7203 30.2668 15.7383C30.0849 15.7742 29.9212 15.6483 29.8666 15.4685C29.8302 15.2886 29.9393 15.1087 30.1212 15.0907C30.3031 15.0548 30.4668 15.1807 30.5032 15.3605H30.5214Z" fill="#6B6B6B"/>
<path fill-rule="evenodd" clip-rule="evenodd" d="M30.467 17.0872C30.467 17.2671 30.3033 17.411 30.1214 17.393C29.9395 17.393 29.794 17.2131 29.8122 17.0332C29.8122 16.8534 29.9759 16.7095 30.1578 16.7275C30.3397 16.7275 30.4852 16.9073 30.467 17.0872Z" fill="#6B6B6B"/>
<path fill-rule="evenodd" clip-rule="evenodd" d="M29.9758 18.724C29.9212 18.9039 29.7393 18.9938 29.5574 18.9219C29.3755 18.8679 29.2846 18.6701 29.3392 18.4902C29.3937 18.3104 29.5756 18.2384 29.7575 18.2924C29.9212 18.3463 30.0303 18.5442 29.9758 18.724Z" fill="#6B6B6B"/>
<path fill-rule="evenodd" clip-rule="evenodd" d="M29.0664 20.145C28.9755 20.2889 28.7572 20.3249 28.6117 20.2349C28.448 20.127 28.4116 19.9291 28.5026 19.7673C28.5935 19.6234 28.7936 19.5694 28.9573 19.6773C29.121 19.7853 29.1574 19.9831 29.0664 20.145Z" fill="#6B6B6B"/>
<path fill-rule="evenodd" clip-rule="evenodd" d="M27.8295 21.2781C27.7022 21.386 27.4839 21.3681 27.3566 21.2422C27.2293 21.0983 27.2475 20.8824 27.3566 20.7745C27.4839 20.6486 27.7022 20.6666 27.8295 20.8105C27.9568 20.9544 27.9387 21.1702 27.8113 21.2781H27.8295Z" fill="#6B6B6B"/>
<path fill-rule="evenodd" clip-rule="evenodd" d="M26.3197 22.0156C26.156 22.0875 25.9559 22.0156 25.8832 21.8537C25.7922 21.6918 25.865 21.494 26.0287 21.404C26.1924 21.3321 26.3925 21.404 26.4652 21.5659C26.5562 21.7278 26.4834 21.9257 26.3197 22.0156Z" fill="#6B6B6B"/>
<path fill-rule="evenodd" clip-rule="evenodd" d="M24.6463 22.3393C24.4644 22.3753 24.3007 22.2494 24.2644 22.0695C24.228 21.8897 24.3371 21.7098 24.519 21.6918C24.7009 21.6558 24.8646 21.7818 24.901 21.9616C24.9374 22.1415 24.8282 22.3214 24.6463 22.3393Z" fill="#6B6B6B"/>
<path fill-rule="evenodd" clip-rule="evenodd" d="M22.9365 22.2134C22.7547 22.2134 22.6091 22.0335 22.6273 21.8537C22.6273 21.6738 22.791 21.5299 22.9729 21.5479C23.1548 21.5479 23.3003 21.7278 23.2821 21.9076C23.2821 22.0875 23.1184 22.2314 22.9365 22.2134Z" fill="#6B6B6B"/>
<path fill-rule="evenodd" clip-rule="evenodd" d="M23.4459 15.0727C23.7915 14.7669 24.3008 14.8209 24.61 15.1806C24.9192 15.5403 24.901 16.062 24.5554 16.3677C24.2098 16.6735 23.7005 16.6195 23.3913 16.2598C23.0821 15.9001 23.1003 15.3785 23.4459 15.0727Z" fill="#6B6B6B"/>
<path fill-rule="evenodd" clip-rule="evenodd" d="M29.0299 11.2956C26.9745 8.93931 23.7732 8.25582 21.154 9.353V9.92858C23.6095 8.75945 26.7017 9.37099 28.6479 11.6193C30.9943 14.3173 30.8306 18.3463 28.266 20.6126C26.2651 22.3753 23.4276 22.5552 21.154 21.2781V21.8537C23.5731 23.0948 26.5198 22.8429 28.6116 21.0083C31.3763 18.5621 31.5582 14.2094 29.0117 11.2956H29.0299Z" fill="#6B6B6B"/>
<path d="M46.7099 36.8366L44.3453 33.6889L43.1266 35.0199V36.8366H41.9079V29.7139H43.1266V33.4011L46.5644 29.7139H48.0013L45.2184 32.7536L48.2014 36.8366H46.7463H46.7099Z" fill="#6B6B6B"/>
<path d="M52.2575 36.8365V36.171C51.8573 36.6567 51.2389 36.8905 50.4386 36.8905C49.2563 36.8905 48.5105 36.171 48.5105 35.2177C48.5105 34.2644 49.2563 33.5989 50.5841 33.581H52.2393V33.4191C52.2393 32.7356 51.8028 32.3219 50.9297 32.3219C50.4022 32.3219 49.8565 32.5018 49.3109 32.8795L48.8197 32.0701C49.5837 31.6204 50.1294 31.3866 51.1843 31.3866C52.6031 31.3866 53.3852 32.1061 53.4034 33.2932V36.8545H52.2575V36.8365ZM52.2575 34.93V34.4263H50.766C50.002 34.4263 49.6383 34.6242 49.6383 35.1458C49.6383 35.6314 50.0384 35.9552 50.6932 35.9552C51.5299 35.9552 52.1848 35.5235 52.2393 34.93H52.2575Z" fill="#6B6B6B"/>
<path d="M32.7043 38.6891L35.6691 44.6067L38.634 38.6891H40.4165V47.5925H39.016V40.9375L36.1603 46.6572H35.178L32.3405 40.9375V47.5925H30.9036V38.6891H32.7043Z" fill="#00A04E"/>
<path d="M46.4918 47.5925V46.7652C46.0007 47.3587 45.2186 47.6645 44.2182 47.6645C42.7449 47.6645 41.8172 46.7652 41.8172 45.5601C41.8172 44.355 42.763 43.5456 44.4001 43.5276H46.4736V43.3297C46.4736 42.4844 45.928 41.9627 44.8366 41.9627C44.1818 41.9627 43.4906 42.1966 42.8176 42.6462L42.2174 41.621C43.1632 41.0634 43.8726 40.7756 45.164 40.7756C46.9284 40.7756 47.9106 41.675 47.9288 43.1499V47.5925H46.4918ZM46.4918 45.2183V44.5888H44.6365C43.6725 44.5888 43.2178 44.8406 43.2178 45.4881C43.2178 46.0997 43.7271 46.4954 44.5456 46.4954C45.6006 46.4954 46.4191 45.9558 46.4918 45.2183Z" fill="#00A04E"/>
<path d="M56.2411 43.3837V47.5925H54.7678V43.7794C54.7678 42.7541 54.1494 42.1426 53.1126 42.1426C51.8939 42.1426 51.1481 43.0599 51.1481 44.247V47.5745H49.6748V38.1316H51.1481V42.1246C51.6392 41.1713 52.5123 40.7576 53.6764 40.7576C55.2771 40.7576 56.2229 41.7469 56.2229 43.3657L56.2411 43.3837Z" fill="#00A04E"/>
<path d="M64.4082 44.1931C64.4082 46.2436 62.953 47.6465 60.8431 47.6465C58.7331 47.6465 57.2598 46.2436 57.2598 44.1931C57.2598 42.1426 58.7149 40.7756 60.8431 40.7756C62.9712 40.7756 64.4082 42.1606 64.4082 44.1931ZM58.7513 44.2111C58.7513 45.5241 59.6062 46.4054 60.8431 46.4054C62.0799 46.4054 62.9348 45.5061 62.9348 44.2111C62.9348 42.916 62.0799 42.0167 60.8431 42.0167C59.6062 42.0167 58.7513 42.916 58.7513 44.2111Z" fill="#00A04E"/>
<path d="M69.5012 47.1608C68.9555 47.4846 68.3916 47.6645 67.8096 47.6645C66.7728 47.6645 65.8997 47.0709 65.8997 45.6859V42.1786H64.9357V41.0814H65.8997V39.2288H67.373V41.0814H69.392V42.1786H67.373V45.4161C67.373 46.1176 67.6459 46.3335 68.1006 46.3335C68.4098 46.3335 68.7372 46.2255 69.1374 46.0457L69.5194 47.1608H69.5012Z" fill="#00A04E"/>
<path d="M72.4661 41.9268C71.884 41.9268 71.4656 42.1246 71.4656 42.5923C71.4656 43.8333 75.1035 43.1678 75.0853 45.614C75.0853 46.999 73.8302 47.6285 72.4661 47.6285C71.4656 47.6285 70.3925 47.3047 69.7195 46.6932L70.247 45.65C70.8472 46.1716 71.7931 46.4954 72.5388 46.4954C73.1754 46.4954 73.6665 46.2795 73.6665 45.7759C73.6665 44.3909 70.0651 45.1643 70.0833 42.7182C70.0833 41.3512 71.2838 40.7576 72.6116 40.7576C73.4665 40.7576 74.3941 41.0094 75.0126 41.4411L74.4669 42.5203C73.8666 42.1426 73.1027 41.9268 72.5024 41.9268H72.4661Z" fill="#00A04E"/>
<path d="M80.3602 47.5925V46.7652C79.8691 47.3587 79.087 47.6645 78.0866 47.6645C76.6132 47.6645 75.6856 46.7652 75.6856 45.5601C75.6856 44.355 76.6314 43.5456 78.2684 43.5276H80.342V43.3297C80.342 42.4844 79.7963 41.9627 78.705 41.9627C78.0502 41.9627 77.359 42.1966 76.686 42.6462L76.0857 41.621C77.0316 41.0634 77.741 40.7756 79.0324 40.7756C80.7968 40.7756 81.779 41.675 81.7972 43.1499V47.5925H80.3602ZM80.3602 45.2183V44.5888H78.5049C77.5409 44.5888 77.0862 44.8406 77.0862 45.4881C77.0862 46.0997 77.5954 46.4954 78.414 46.4954C79.4689 46.4954 80.2875 45.9558 80.3602 45.2183Z" fill="#00A04E"/>
<path d="M83.7434 40.8295L85.6533 46.1536L87.5268 40.8295H89.0001L86.3809 47.5925H84.853L82.1973 40.8295H83.7434Z" fill="#00A04E"/>
<path d="M5.5841 42.3765H1.96444L1.27325 43.9773H0L3.18312 36.8546H4.41999L7.56673 43.9773H6.27529L5.5841 42.3765ZM5.12937 41.3153L3.76517 38.1496L2.40098 41.3153H5.11118H5.12937Z" fill="#6B6B6B"/>
<path d="M17.3524 40.6138V43.9773H16.1701V40.9375C16.1701 40.1101 15.679 39.6065 14.8787 39.6065C13.9329 39.6425 13.369 40.344 13.369 41.2973V43.9773H12.1867V40.9375C12.1867 40.1101 11.6956 39.6065 10.8953 39.6065C9.94942 39.6425 9.36736 40.344 9.36736 41.2973V43.9773H8.18506V38.5633H9.36736V39.6065C9.74933 38.8511 10.4405 38.5093 11.35 38.5093C12.3322 38.5093 13.0052 38.995 13.2599 39.8044C13.6055 38.905 14.333 38.5093 15.3334 38.5093C16.5885 38.5093 17.3343 39.3007 17.3343 40.5958L17.3524 40.6138Z" fill="#6B6B6B"/>
<path d="M21.7544 38.5273V39.6425C20.6448 39.5886 19.9536 40.2181 19.8627 41.1534V43.9773H18.6804V38.5633H19.8627V39.6425C20.2265 38.9051 20.8995 38.5273 21.7544 38.5273Z" fill="#6B6B6B"/>
<path d="M23.7551 37.0345C23.7551 37.4302 23.464 37.718 23.0639 37.718C22.6637 37.718 22.3727 37.4302 22.3727 37.0345C22.3727 36.6388 22.6637 36.333 23.0639 36.333C23.464 36.333 23.7551 36.6208 23.7551 37.0345ZM23.6459 38.5813V43.9953H22.4636V38.5813H23.6459Z" fill="#6B6B6B"/>
<path d="M28.2479 43.6356C27.8114 43.8874 27.3567 44.0313 26.9019 44.0313C26.0834 44.0313 25.374 43.5636 25.374 42.4484V39.6425H24.6101V38.7612H25.374V37.2683H26.5563V38.7612H28.1752V39.6425H26.5563V42.2326C26.5563 42.7902 26.7746 42.9701 27.1384 42.9701C27.393 42.9701 27.6477 42.8801 27.9569 42.7362L28.2479 43.6356Z" fill="#6B6B6B"/>
<path fill-rule="evenodd" clip-rule="evenodd" d="M71.9021 7.55437C71.5201 7.3745 71.2291 7.51839 70.9744 7.62631C68.4825 8.74148 65.9906 8.68752 63.3895 7.95007C61.2977 7.35652 59.1696 6.83491 56.9869 6.63705C53.0762 6.31329 49.5839 7.6443 46.1825 9.33504C44.7092 10.0725 43.254 10.8639 41.617 11.2236C40.1618 11.5474 39.6344 11.0078 39.9072 9.56887C40.1437 8.36377 39.8526 7.86014 38.6703 7.46444C38.3611 7.35652 38.0155 7.28457 37.6881 7.23061C33.4864 6.72699 29.3938 7.32054 25.3376 8.3098L25.0102 8.4537C25.0102 8.4537 29.5939 8.14793 31.5947 12.1409C34.123 11.7632 36.6513 11.8711 39.1796 12.2129C40.2164 12.3568 40.6166 12.8964 40.2346 13.9396C40.0891 14.3533 39.9981 14.803 39.9618 15.2526C39.8526 16.6016 40.4711 17.1232 41.7989 16.8175C42.2354 16.7275 42.672 16.5836 43.0721 16.4038C44.891 15.5224 46.7282 14.6771 48.4198 13.5259C50.2205 12.3208 52.1667 11.5294 54.3676 11.2956C57.2961 10.9898 60.2428 11.2236 63.1712 11.0977C65.6995 10.9898 68.2097 10.72 70.3742 9.19115C70.9744 8.75947 71.6656 8.36376 71.8839 7.55437H71.9021Z" fill="#F6921E"/>
<path fill-rule="evenodd" clip-rule="evenodd" d="M71.9022 16.7275C71.5202 16.5477 71.2292 16.6916 70.9745 16.7995C68.4826 17.9146 65.9907 17.8607 63.3896 17.1232C61.2979 16.5297 59.1697 16.0081 56.987 15.8102C53.0763 15.4865 49.584 16.8175 46.1826 18.5082C44.7093 19.2456 43.2541 20.0371 41.6171 20.3968C40.1619 20.7205 39.6345 20.1809 39.9073 18.742C40.1438 17.5369 39.8527 17.0333 38.6704 16.6376C38.3612 16.5297 38.0156 16.4577 37.6882 16.4038C35.942 16.1879 34.1959 16.1699 32.4861 16.2958C32.4315 16.9434 31.9586 20.2529 28.8482 21.9077C29.2302 21.7997 29.6122 21.7098 29.9942 21.6199C33.0318 20.9184 36.1057 20.9724 39.1797 21.3861C40.2165 21.5299 40.6167 22.0695 40.2347 23.1128C40.0892 23.5265 39.9982 23.9761 39.9619 24.4258C39.8527 25.7748 40.4712 26.2964 41.799 25.9906C42.2355 25.9007 42.6721 25.7568 43.0722 25.5769C44.8912 24.6956 46.7283 23.8502 48.4199 22.6991C50.2206 21.494 52.1669 20.7026 54.3678 20.4687C57.2962 20.163 60.2429 20.3968 63.1713 20.2709C65.6997 20.163 68.2098 19.8932 70.3743 18.3643C70.9745 17.9326 71.6657 17.5369 71.884 16.7275H71.9022Z" fill="#00A04E"/>
<path fill-rule="evenodd" clip-rule="evenodd" d="M4.63828 0V1.96054H16.4431L6.49358 20.0011L8.13061 21.1522L19.99 0H4.63828Z" fill="#6B6B6B"/>
<path fill-rule="evenodd" clip-rule="evenodd" d="M31.2309 0H22.0089L15.2971 11.9611L16.8432 12.7165L23.0093 1.96054H31.2309V0Z" fill="#6B6B6B"/>
</svg>
