<svg width="128" height="49" viewBox="0 0 128 49" fill="none" xmlns="http://www.w3.org/2000/svg">
<g clip-path="url(#clip0_1_438)">
<path fill-rule="evenodd" clip-rule="evenodd" d="M2.85175 24.8781L2.32178 24.3488C4.29023 22.3323 7.57099 22.2819 9.58992 24.2984L9.64039 24.3488L9.11042 24.8781C7.3691 23.1389 4.56783 23.1389 2.85175 24.8781ZM4.69402 26.6173L4.21452 26.1384C5.17351 25.1301 6.76342 25.1301 7.77288 26.088L7.82335 26.1384L7.34386 26.6173C7.01578 26.2896 6.53629 26.088 6.03156 26.088C5.52682 26.088 5.07257 26.2896 4.69402 26.6173ZM6.03156 27.928L5.12304 27.0206C5.3754 26.7685 5.70348 26.6425 6.03156 26.6425C6.35963 26.6425 6.71294 26.7937 6.94007 27.0206L6.03156 27.928ZM6.03156 24.8529C6.83913 24.8529 7.62146 25.1806 8.2019 25.7603L8.78234 25.1806C7.29339 23.643 4.87067 23.5926 3.33124 25.0797L3.23029 25.1806L3.81074 25.7603C4.39118 25.1806 5.19875 24.8529 6.03156 24.8529Z" fill="#0E6EB6"/>
<path fill-rule="evenodd" clip-rule="evenodd" d="M2.52364 28.5581H9.36276C4.44162 40.9845 3.58358 48.2942 8.58043 48.1178C-2.37226 48.7983 -0.959007 38.1615 2.49841 28.5581" fill="#0E6EB6"/>
<path fill-rule="evenodd" clip-rule="evenodd" d="M8.83282 9.47735C15.0915 -0.73098 25.2618 -1.73921 32.5047 1.96604C40.5047 6.04937 43.0032 15.6024 40.9842 24.0211C39.1924 31.6836 34.1956 38.6656 27.6846 43.127C23.6719 45.8241 19.1546 47.6641 14.4353 48.3698C18.0947 47.16 21.3249 45.0427 23.8738 42.1692C25.4637 40.43 26.8265 38.5648 27.9622 36.5483C31.6215 31.5828 33.3628 26.7181 33.4637 22.4835C33.7161 16.8122 31.1924 11.1157 25.9937 8.51953C21.4259 6.2006 15.2934 6.30143 8.83282 9.47735Z" fill="#F26329"/>
<path fill-rule="evenodd" clip-rule="evenodd" d="M4.11357 20.9964C9.21136 10.8889 19.735 10.1579 25.9432 14.5437C28.3912 16.2829 30.082 18.8287 30.7634 21.7778C31.6215 25.483 31.0158 29.3395 29.6025 32.9943C28.2902 36.4223 26.3722 39.5478 23.8738 42.2449C20.3659 46.1517 15.2934 49.126 9.89275 49.0252C7.7224 49.0252 5.60253 48.4455 3.76025 47.3868C6.30915 48.6471 10.2713 48.1934 12.6688 47.1852C16.6814 45.5468 19.9117 42.1188 21.9306 38.3632C24.429 33.7505 26.3722 26.3148 22.4101 22.0802C18.8013 18.1229 11.6593 16.787 4.08833 20.9712" fill="#09A14A"/>
<path d="M124.139 26.7685L125.35 23.2901H124.921C124.139 23.2397 123.432 23.5422 122.902 24.0967C122.372 24.6261 121.994 25.3066 121.842 26.0628C121.741 26.3905 121.741 26.7433 121.893 27.071C122.044 27.3231 122.271 27.4491 122.574 27.4491C123.155 27.3483 123.685 27.1214 124.164 26.7181M128.025 21.6518L125.476 28.785H123.407L123.659 28.1044C123.028 28.5834 122.271 28.8858 121.489 28.911C120.858 28.9614 120.227 28.5834 119.95 28.054C119.621 27.3735 119.521 26.5669 119.748 25.7855C120 24.5252 120.707 23.3658 121.767 22.6096C122.927 21.7526 124.315 21.2989 125.779 21.3493C126.511 21.3997 127.268 21.4501 128.05 21.6266M119.621 21.5257L117.022 28.785H114.953L117.552 21.5257H119.621ZM118.183 19.5093C118.334 18.8791 118.864 18.4002 119.495 18.4002C119.773 18.4002 120.025 18.5011 120.177 18.7279C120.379 18.98 120.429 19.2572 120.328 19.5093C120.278 19.837 120.076 20.089 119.849 20.3159C119.596 20.5175 119.319 20.5931 119.041 20.5931C118.789 20.5931 118.511 20.4923 118.36 20.3159C118.208 20.0638 118.158 19.7865 118.208 19.5093M111.748 27.071L113.085 23.3154C112.883 23.2649 112.757 23.2649 112.555 23.2649C111.874 23.2649 111.218 23.4666 110.688 23.8951C110.158 24.2732 109.83 24.8529 109.678 25.4326C109.527 25.8611 109.628 26.2896 109.931 26.6929C110.259 27.0206 110.713 27.2222 111.192 27.1718C111.394 27.1718 111.571 27.1718 111.773 27.071M117.073 17.8709L113.262 28.7094C112.454 28.8606 111.621 28.9614 110.814 28.9614C109.552 28.9614 108.644 28.6338 108.063 28.0036C107.483 27.3735 107.281 26.5165 107.533 25.4578C107.785 24.2984 108.391 23.2901 109.325 22.5592C110.284 21.7778 111.445 21.3493 112.707 21.3493C113.035 21.3493 113.388 21.3997 113.716 21.4501L114.978 17.8457L117.098 17.8961L117.073 17.8709ZM102.94 21.5257L102.662 22.3323C103.394 21.7526 104.303 21.4249 105.262 21.3745C105.741 21.3241 106.221 21.5762 106.524 21.9542C106.776 22.4836 106.801 23.0633 106.625 23.5926C106.574 23.8447 106.524 24.0211 106.423 24.2228L104.833 28.7598H102.763L104.303 24.4244C104.353 24.2732 104.404 24.1723 104.454 24.0463C104.606 23.3154 104.454 22.9877 104.025 22.9877C103.596 22.9877 102.864 23.3658 102.057 24.0967L100.416 28.7598H98.347L100.946 21.5005L102.965 21.551L102.94 21.5257ZM99.9874 17.8709L96.1262 28.8102H93.9054L97.7666 17.8709H99.9874ZM91.4069 17.8709L87.5457 28.8102H85.5268L89.388 17.8709H91.4069ZM82.2461 26.6929L83.4574 23.2145H83.0284C82.2461 23.1641 81.5394 23.4666 81.0095 24.0211C80.4795 24.5504 80.1009 25.231 79.9495 25.9368C79.8486 26.2644 79.8486 26.6677 80 26.945C80.1514 27.197 80.3785 27.3231 80.6814 27.3231C81.2618 27.2222 81.8423 27.0458 82.2713 26.6425M86.1325 21.5762L83.6341 28.7598H81.5647L81.817 28.0792C81.1861 28.5582 80.429 28.8606 79.6467 28.8858C78.9653 28.9362 78.3849 28.6086 78.0568 28.0288C77.7287 27.2979 77.6278 26.5417 77.8549 25.7603C78.1073 24.5 78.8139 23.3406 79.8738 22.5844C81.0347 21.7274 82.4227 21.2737 83.8864 21.3241C84.6183 21.3241 85.3754 21.3745 86.1577 21.5762M77.1987 19.9378L76.5678 21.4753H78.0568L77.4259 23.0633H75.8864L74.9779 25.4326C74.877 25.6343 74.8265 25.8107 74.776 26.0124C74.6246 26.6425 74.776 26.9702 75.205 26.9702C75.6341 26.9198 76.0631 26.7685 76.4669 26.5417L76.0379 28.4573C75.4574 28.7346 74.8265 28.9362 74.1703 28.9362C73.5899 28.9866 73.0599 28.7346 72.7319 28.2557C72.4543 27.7264 72.3533 27.0962 72.53 26.5165C72.5804 26.3148 72.6814 26.088 72.7319 25.8863L73.8423 23.0885H72.4543L73.0852 21.5005H74.4732L75.0536 19.963L77.224 19.9126L77.1987 19.9378ZM72.1262 21.4753L69.5773 28.7346H67.5079L70.0568 21.4753H72.1262ZM70.7382 19.4589C70.7886 19.1816 70.9905 18.8791 71.2177 18.6775C71.47 18.4758 71.7476 18.3498 72.0252 18.3498C72.3028 18.3498 72.5552 18.4506 72.7066 18.6775C72.858 18.9296 72.9085 19.2068 72.858 19.4589C72.7571 19.7361 72.6057 20.0386 72.3785 20.2655C72.1262 20.4671 71.8486 20.5427 71.571 20.5427C71.3186 20.5427 71.041 20.4419 70.8896 20.2655C70.7382 20.0134 70.6877 19.7361 70.7382 19.4589ZM64.0252 30.3478C64.0757 30.0201 63.8233 29.768 63.2177 29.6168L62.3596 29.4151C62.082 29.4151 61.7792 29.516 61.552 29.6168C61.224 29.7176 60.9716 29.9445 60.9211 30.2469C60.8202 30.7763 61.2492 31.0283 62.2587 31.0283C62.6877 31.0283 63.1167 30.9779 63.5205 30.8771C63.7729 30.7763 63.9495 30.5998 64.0505 30.3478M63.9495 25.5335C64.7319 25.5335 65.2114 25.0041 65.388 23.9455C65.489 23.6934 65.4385 23.4162 65.2871 23.1641C65.1356 22.9625 64.9085 22.8869 64.6562 22.8869C63.8738 22.8869 63.3943 23.4162 63.1672 24.4748C62.9653 25.2058 63.2681 25.5335 63.9495 25.5335ZM68.9211 21.5005L68.3912 23.0885H67.2808C67.3817 23.4666 67.3817 23.8699 67.2808 24.248C67.1293 25.0293 66.7003 25.6343 66.0694 26.1132C65.388 26.6425 64.6309 26.8946 63.7476 26.8946C63.4196 26.8946 63.1167 26.8946 62.7886 26.945C62.5867 26.945 62.4606 27.0962 62.4606 27.2727C62.4101 27.3735 62.4606 27.4239 62.612 27.5247C63.0915 27.676 63.571 27.7768 64.0505 27.802C64.9085 27.9532 65.489 28.1801 65.7918 28.5834C66.0694 29.0119 66.2208 29.5412 66.0694 30.0201C65.7413 31.608 64.3281 32.3894 61.9811 32.3894C61.1735 32.4398 60.3407 32.2886 59.6088 31.9105C59.1293 31.6585 58.877 31.1039 59.0284 30.5746C59.1798 29.8941 59.8864 29.3143 61.0978 28.9362C60.5678 28.6842 60.3155 28.1297 60.4164 27.6003C60.5678 26.9198 61.1483 26.4913 62.1073 26.2644C61.4259 25.7855 61.1483 24.9537 61.3249 24.1471C61.5268 23.3658 61.9558 22.7104 62.6372 22.2315C63.3186 21.7022 64.1767 21.4249 65.0599 21.4249H68.9211V21.5762V21.5005ZM60.7192 21.5005L58.1703 28.7598H56.1009L58.6498 21.5005H60.7192ZM59.2808 19.4841C59.3312 19.2068 59.5331 18.9043 59.7603 18.7027C60.0126 18.5011 60.2902 18.4254 60.5678 18.375C60.8454 18.375 61.0978 18.4758 61.2492 18.7027C61.4006 18.9548 61.4511 19.232 61.4006 19.4841C61.2997 19.8118 61.1483 20.0638 60.9211 20.2907C60.6688 20.4923 60.3912 20.5679 60.0631 20.5679C59.8107 20.5679 59.5331 20.4671 59.3817 20.2907C59.2303 20.0386 59.1798 19.7613 59.2808 19.4841ZM50.1703 19.6857L47.6215 26.945H49.6909C50.7508 26.945 51.7098 26.5669 52.4921 25.8359C53.2744 25.105 53.8044 24.1471 54.0315 23.0885C54.2839 22.2315 54.1325 21.2989 53.653 20.5931C53.0726 19.9126 52.2145 19.5345 51.2808 19.6353L50.1703 19.6857ZM48.6309 17.8457H52.1136C53.8549 17.8457 55.0915 18.3246 55.7729 19.3328C56.4543 20.3411 56.6309 21.6014 56.3028 23.1893C55.9748 24.7269 55.1924 26.1384 53.9811 27.197C52.9716 28.2053 51.5584 28.785 50.1199 28.785H44.7697L48.6309 17.8457Z" fill="#606060"/>
<path fill-rule="evenodd" clip-rule="evenodd" d="M45.5268 36.3467H46.7382C47.1168 36.3467 47.5205 36.2459 47.7981 36.019C48.0505 35.767 48.1767 35.4393 48.1767 35.1116C48.1767 34.7839 48.0253 34.4311 47.7981 34.2042C47.5205 33.9522 47.1168 33.8765 46.7382 33.8765H45.5268V36.3719V36.3467ZM45.5268 37.0273V39.8251H44.795V33.1708H46.5363C47.1672 33.1204 47.7477 33.322 48.2776 33.6497C48.7067 33.9774 48.959 34.5067 48.9085 35.0864C48.9085 35.6157 48.7067 36.1451 48.2776 36.4727C47.7981 36.8508 47.1672 37.0021 46.5363 37.0021H45.5268V37.0273Z" fill="#606060"/>
<path fill-rule="evenodd" clip-rule="evenodd" d="M51.735 39.1445C52.164 39.1445 52.5931 38.9933 52.8959 38.6656C53.224 38.338 53.3754 37.8843 53.3754 37.4558C53.3754 37.0273 53.224 36.5484 52.8959 36.2459C52.6183 35.9182 52.164 35.7166 51.735 35.7166C51.306 35.7166 50.877 35.9182 50.5741 36.2459C50.2461 36.5736 50.0946 37.0273 50.0946 37.4558C50.0946 37.8843 50.2461 38.3632 50.5741 38.6656C50.8517 38.9933 51.306 39.195 51.735 39.1445ZM51.735 39.8251C51.1041 39.8755 50.4732 39.573 50.0442 39.1445C49.1861 38.1867 49.1861 36.6996 50.0442 35.7166C50.9527 34.8092 52.4669 34.8092 53.3754 35.7166C54.2334 36.6744 54.2334 38.1615 53.3754 39.1445C52.9968 39.573 52.3659 39.8251 51.735 39.8251Z" fill="#606060"/>
<path fill-rule="evenodd" clip-rule="evenodd" d="M56.8581 38.6152L58.1451 34.9604H58.5741L59.8865 38.6152L61.2745 35.0108H61.9054L60.0631 39.8251H59.6341L58.347 36.1955L57.0347 39.8251H56.6057L54.713 35.0108H55.4448L56.8581 38.6152Z" fill="#606060"/>
<path fill-rule="evenodd" clip-rule="evenodd" d="M65.8675 36.8256C65.817 36.5736 65.7161 36.3467 65.5899 36.1451C65.3376 35.8678 64.959 35.6662 64.5805 35.7166C64.2019 35.7166 63.8486 35.9182 63.6215 36.1955C63.47 36.3971 63.3691 36.624 63.2934 36.8761L65.8928 36.8256H65.8675ZM63.1672 37.4054C63.1672 37.8339 63.3691 38.2624 63.6972 38.6153C64.0252 38.9429 64.4795 39.1446 64.9085 39.1446C65.1861 39.1446 65.489 39.0942 65.7161 38.9933C65.9937 38.8925 66.2461 38.7413 66.4984 38.5648L66.6499 38.4136V39.1446H66.5994C66.347 39.3462 66.0694 39.5227 65.7918 39.6235C64.8833 39.9512 63.9243 39.7747 63.1924 39.0942C62.7634 38.6657 62.5111 38.0355 62.5111 37.355C62.4606 36.7248 62.7129 36.0947 63.0915 35.6158C63.47 35.1873 64 34.9352 64.5805 34.9352C65.1609 34.8848 65.7413 35.1369 66.1199 35.5654C66.448 36.0443 66.6499 36.624 66.6499 37.2037V37.3046L63.1672 37.4054Z" fill="#606060"/>
<path fill-rule="evenodd" clip-rule="evenodd" d="M68.7445 35.7166C69.1231 34.9856 70.0063 34.7588 70.713 35.1369H70.7634C70.7634 35.1369 70.8139 35.1369 70.8139 35.1873V35.9686C70.8139 35.9686 70.8139 35.9686 70.7634 35.9686C69.653 35.3385 69.0221 36.2459 68.795 36.8256V39.8503H68.1136V35.036H68.795V35.7166H68.7445Z" fill="#606060"/>
<path fill-rule="evenodd" clip-rule="evenodd" d="M75.6846 33.8513H73.5647V33.2716H78.5363V33.8513H76.4164V39.7243H75.6846V33.8513Z" fill="#606060"/>
<path fill-rule="evenodd" clip-rule="evenodd" d="M87.2682 33.9774V36.0694H89.9685V36.6744H87.2682V39.0437H90.448V39.7243H86.5363V33.322H90.2966V33.9774H87.2682Z" fill="#606060"/>
<path fill-rule="evenodd" clip-rule="evenodd" d="M92.366 35.6157C92.694 35.2377 93.1735 34.9856 93.7035 34.9856C94.183 34.9856 94.612 35.1368 94.9653 35.5149C95.0663 35.6157 95.1672 35.767 95.2429 35.893L95.3439 35.7418C95.672 35.3133 96.2019 35.0108 96.7319 35.0108C97.2114 35.0108 97.6404 35.162 97.9937 35.5401C98.3218 35.8678 98.4732 36.3467 98.4732 36.8508V39.6991H97.7918V36.8508C97.7918 36.5231 97.6909 36.2207 97.5142 35.9938C97.3123 35.7418 97.0347 35.6661 96.7067 35.6661C96.3281 35.6661 95.9243 35.9182 95.6972 36.1955C95.5962 36.2963 95.5458 36.3971 95.4448 36.4727V39.6487H94.7634V36.8004C94.7634 36.4727 94.6625 36.1703 94.4858 35.9434C94.2839 35.6914 94.0063 35.6157 93.6783 35.6157C93.2997 35.6157 92.8959 35.8678 92.6688 36.1451C92.5679 36.2459 92.5174 36.3467 92.4164 36.4223V39.5982H91.735V35.036H92.4164L92.366 35.6157Z" fill="#606060"/>
<path d="M99.9874 35.036H100.669V35.6158C100.82 35.3637 101.047 35.1873 101.35 35.0864C102.208 34.7588 103.192 34.9352 103.798 35.5654C104.606 36.5736 104.606 38.0103 103.849 39.0437C103.041 39.9512 101.779 39.7747 100.77 39.2454L100.719 39.195V41.4131H100.038L99.9874 35.0612V35.036ZM102.789 35.893C102.208 35.5149 101.401 35.6158 100.669 36.5232V38.3884C101.401 39.1698 102.309 39.195 102.89 38.7665C103.672 38.0859 103.748 36.9265 103.092 36.1703C103.041 36.0191 102.94 35.9182 102.814 35.893" fill="#606060"/>
<path d="M56.4038 29.9445H43.2051V30.7258H56.4038V29.9445Z" fill="#606060"/>
<path d="M127.167 29.9445H67.0536V30.7258H127.167V29.9445Z" fill="#606060"/>
<path fill-rule="evenodd" clip-rule="evenodd" d="M80.4291 39.0438C80.8581 39.0438 81.2871 38.8925 81.59 38.5649C81.918 38.2372 82.0694 37.7835 82.0694 37.355C82.0694 36.9265 81.8676 36.4476 81.59 36.0947C81.3124 35.7418 80.8581 35.6158 80.4291 35.6158C80 35.6158 79.571 35.767 79.2682 36.0947C78.9401 36.4224 78.7887 36.8761 78.7887 37.355C78.7887 37.7835 78.9401 38.2624 79.2682 38.5649C79.5458 38.8421 80 39.0438 80.4291 39.0438ZM80.4291 39.6739C79.7982 39.6739 79.1672 39.4219 78.7382 38.9934C78.3092 38.5649 78.0568 37.9347 78.0568 37.2542C78.0064 36.624 78.2587 35.9939 78.7382 35.515C79.1672 35.0865 79.7982 34.784 80.4291 34.8344C81.06 34.8344 81.6909 35.0865 82.0694 35.515C82.4985 35.9435 82.7508 36.5736 82.7508 37.2542C82.7508 37.8843 82.4985 38.5144 82.0694 38.9934C81.6404 39.4219 81.06 39.6739 80.4291 39.6739Z" fill="#606060"/>
<path fill-rule="evenodd" clip-rule="evenodd" d="M107.609 39.0438C108.038 39.0438 108.467 38.8925 108.77 38.5649C109.098 38.2372 109.249 37.7835 109.249 37.355C109.249 36.9265 109.098 36.4476 108.77 36.0947C108.189 35.4645 107.18 35.4141 106.498 36.0443L106.448 36.0947C106.12 36.4224 105.969 36.8761 105.969 37.355C105.969 37.7835 106.12 38.2624 106.448 38.5649C106.776 38.8421 107.18 39.0438 107.609 39.0438ZM107.609 39.6739C106.978 39.7243 106.347 39.4219 105.918 38.9934C105.489 38.5649 105.237 37.9347 105.237 37.2542C105.186 36.624 105.439 35.9939 105.918 35.515C106.347 35.0865 106.978 34.784 107.609 34.8344C108.24 34.8344 108.871 35.0865 109.3 35.515C109.729 35.9939 109.981 36.5736 109.981 37.2542C109.981 37.8843 109.729 38.5144 109.3 38.9934C108.871 39.4219 108.29 39.6739 107.609 39.6739Z" fill="#606060"/>
<path fill-rule="evenodd" clip-rule="evenodd" d="M112.707 38.6656L114.019 35.0108H114.498L115.811 38.6656L117.148 35.036H117.83L115.987 39.8251H115.558L114.271 36.2459L112.909 39.8251H112.53L110.637 35.036H111.369L112.707 38.6656Z" fill="#606060"/>
<path fill-rule="evenodd" clip-rule="evenodd" d="M121.792 36.8257C121.741 36.5736 121.64 36.3467 121.514 36.1451C121.262 35.8678 120.883 35.6662 120.505 35.7166C120.126 35.7166 119.773 35.9182 119.546 36.1955C119.394 36.3972 119.268 36.624 119.218 36.8761L121.817 36.8257H121.792ZM119.092 37.4054C119.092 37.8339 119.293 38.2624 119.621 38.6153C119.95 38.9681 120.404 39.1446 120.833 39.1446C121.11 39.1446 121.413 39.0942 121.64 38.9934C121.918 38.8925 122.17 38.7413 122.423 38.5649L122.625 38.4136V39.1446H122.574C122.322 39.3462 122.044 39.5227 121.767 39.6235C120.858 39.9512 119.849 39.7747 119.167 39.0942C118.738 38.6657 118.486 38.0355 118.486 37.355C118.486 36.7248 118.688 36.0947 119.066 35.6158C119.849 34.7588 121.136 34.7084 122.019 35.4645L122.12 35.5654C122.498 36.0443 122.7 36.624 122.65 37.2037V37.3046L119.142 37.4054H119.092Z" fill="#606060"/>
<path fill-rule="evenodd" clip-rule="evenodd" d="M124.669 35.6662C125.047 34.9856 125.931 34.7084 126.637 35.0865C126.637 35.0865 126.688 35.0865 126.688 35.1369V35.9183L126.637 35.8679C125.527 35.2377 124.896 36.1451 124.669 36.7248V39.7495H123.987V34.9352H124.669V35.6662Z" fill="#606060"/>
</g>
<defs>
<clipPath id="clip0_1_438">
<rect width="128" height="49" fill="white"/>
</clipPath>
</defs>
</svg>
