<svg width="97" height="40" viewBox="0 0 97 40" fill="none" xmlns="http://www.w3.org/2000/svg">
<rect x="28.7666" width="40" height="40" rx="4" fill="white" fill-opacity="0.15"/>
<g opacity="0.6" clip-path="url(#clip0_1_421)">
<path d="M94.0909 13.0587C93.9496 13.0609 93.815 13.119 93.7165 13.2204C93.6181 13.3217 93.5639 13.458 93.5659 13.5993V15.1993H91.9659C91.8952 15.1983 91.825 15.2113 91.7594 15.2377C91.6939 15.264 91.6342 15.3032 91.5838 15.3528C91.5335 15.4024 91.4935 15.4616 91.4663 15.5268C91.439 15.592 91.4249 15.6619 91.4249 15.7326C91.4249 15.8033 91.439 15.8733 91.4663 15.9385C91.4935 16.0037 91.5335 16.0628 91.5838 16.1124C91.6342 16.1621 91.6939 16.2012 91.7594 16.2275C91.825 16.2539 91.8952 16.267 91.9659 16.266H93.5659V17.866C93.5649 17.9366 93.5779 18.0068 93.6043 18.0724C93.6306 18.138 93.6698 18.1976 93.7194 18.248C93.769 18.2983 93.8281 18.3383 93.8933 18.3656C93.9585 18.3928 94.0285 18.4069 94.0992 18.4069C94.1699 18.4069 94.2399 18.3928 94.3051 18.3656C94.3703 18.3383 94.4294 18.2983 94.479 18.248C94.5286 18.1976 94.5678 18.138 94.5941 18.0724C94.6205 18.0068 94.6335 17.9366 94.6325 17.866V16.266H96.2325C96.3032 16.267 96.3734 16.2539 96.439 16.2275C96.5045 16.2012 96.5642 16.1621 96.6146 16.1124C96.6649 16.0628 96.7049 16.0037 96.7321 15.9385C96.7594 15.8733 96.7735 15.8033 96.7735 15.7326C96.7735 15.6619 96.7594 15.592 96.7321 15.5268C96.7049 15.4616 96.6649 15.4024 96.6146 15.3528C96.5642 15.3032 96.5045 15.264 96.439 15.2377C96.3734 15.2113 96.3032 15.1983 96.2325 15.1993H94.6325V13.5993C94.6335 13.5279 94.6202 13.4571 94.5933 13.391C94.5664 13.3249 94.5265 13.2649 94.476 13.2145C94.4255 13.164 94.3654 13.1243 94.2992 13.0975C94.2331 13.0708 94.1622 13.0575 94.0909 13.0587ZM88.4294 14.1337C88.2765 14.1419 88.1291 14.1939 88.0048 14.2835C87.8805 14.373 87.7846 14.4964 87.7284 14.6389L83.7169 24.7993H83.4325C83.3619 24.7983 83.2917 24.8113 83.2261 24.8377C83.1605 24.864 83.1008 24.9032 83.0505 24.9528C83.0002 25.0024 82.9602 25.0616 82.9329 25.1268C82.9056 25.192 82.8916 25.2619 82.8916 25.3326C82.8916 25.4033 82.9056 25.4733 82.9329 25.5385C82.9602 25.6037 83.0002 25.6628 83.0505 25.7124C83.1008 25.7621 83.1605 25.8012 83.2261 25.8275C83.2917 25.8539 83.3619 25.867 83.4325 25.866H85.5659C85.6365 25.867 85.7067 25.8539 85.7723 25.8275C85.8379 25.8012 85.8976 25.7621 85.9479 25.7124C85.9982 25.6628 86.0382 25.6037 86.0655 25.5385C86.0927 25.4733 86.1068 25.4033 86.1068 25.3326C86.1068 25.2619 86.0927 25.192 86.0655 25.1268C86.0382 25.0616 85.9982 25.0024 85.9479 24.9528C85.8976 24.9032 85.8379 24.864 85.7723 24.8377C85.7067 24.8113 85.6365 24.7983 85.5659 24.7993H85.4367L86.2804 22.6607C86.3087 22.6648 86.3373 22.6665 86.3659 22.666H91.0846L92.0471 24.7993H91.9659C91.8952 24.7983 91.825 24.8113 91.7594 24.8377C91.6939 24.864 91.6342 24.9032 91.5838 24.9528C91.5335 25.0024 91.4935 25.0616 91.4663 25.1268C91.439 25.192 91.4249 25.2619 91.4249 25.3326C91.4249 25.4033 91.439 25.4733 91.4663 25.5385C91.4935 25.6037 91.5335 25.6628 91.5838 25.7124C91.6342 25.7621 91.6939 25.8012 91.7594 25.8275C91.825 25.8539 91.8952 25.867 91.9659 25.866H94.0992C94.1699 25.867 94.24 25.8539 94.3056 25.8275C94.3712 25.8012 94.4309 25.7621 94.4812 25.7124C94.5316 25.6628 94.5715 25.6037 94.5988 25.5385C94.6261 25.4733 94.6401 25.4033 94.6401 25.3326C94.6401 25.2619 94.6261 25.192 94.5988 25.1268C94.5715 25.0616 94.5316 25.0024 94.4812 24.9528C94.4309 24.9032 94.3712 24.864 94.3056 24.8377C94.24 24.8113 94.1699 24.7983 94.0992 24.7993H93.8034L89.2013 14.6035C89.1349 14.4565 89.0258 14.333 88.888 14.2492C88.7503 14.1653 88.5904 14.1251 88.4294 14.1337ZM88.5211 16.9868L90.6034 21.5993H86.7002L88.5211 16.9868Z" fill="white"/>
</g>
<path d="M48.4294 14.1339C48.2765 14.1422 48.1291 14.1942 48.0048 14.2838C47.8805 14.3733 47.7846 14.4967 47.7284 14.6392L43.7169 24.7996H43.4325C43.3619 24.7986 43.2917 24.8116 43.2261 24.838C43.1605 24.8643 43.1008 24.9035 43.0505 24.9531C43.0002 25.0027 42.9602 25.0618 42.9329 25.127C42.9056 25.1923 42.8916 25.2622 42.8916 25.3329C42.8916 25.4036 42.9056 25.4736 42.9329 25.5388C42.9602 25.604 43.0002 25.6631 43.0505 25.7127C43.1008 25.7624 43.1605 25.8015 43.2261 25.8278C43.2917 25.8542 43.3619 25.8672 43.4325 25.8662H45.5659C45.6365 25.8672 45.7067 25.8542 45.7723 25.8278C45.8379 25.8015 45.8976 25.7624 45.9479 25.7127C45.9982 25.6631 46.0382 25.604 46.0655 25.5388C46.0927 25.4736 46.1068 25.4036 46.1068 25.3329C46.1068 25.2622 46.0927 25.1923 46.0655 25.127C46.0382 25.0618 45.9982 25.0027 45.9479 24.9531C45.8976 24.9035 45.8379 24.8643 45.7723 24.838C45.7067 24.8116 45.6365 24.7986 45.5659 24.7996H45.4367L46.2804 22.661C46.3087 22.6651 46.3373 22.6668 46.3659 22.6662H51.0846L52.0471 24.7996H51.9659C51.8952 24.7986 51.825 24.8116 51.7594 24.838C51.6939 24.8643 51.6342 24.9035 51.5838 24.9531C51.5335 25.0027 51.4935 25.0618 51.4663 25.127C51.439 25.1923 51.4249 25.2622 51.4249 25.3329C51.4249 25.4036 51.439 25.4736 51.4663 25.5388C51.4935 25.604 51.5335 25.6631 51.5838 25.7127C51.6342 25.7624 51.6939 25.8015 51.7594 25.8278C51.825 25.8542 51.8952 25.8672 51.9659 25.8662H54.0992C54.1699 25.8672 54.24 25.8542 54.3056 25.8278C54.3712 25.8015 54.4309 25.7624 54.4812 25.7127C54.5316 25.6631 54.5715 25.604 54.5988 25.5388C54.6261 25.4736 54.6401 25.4036 54.6401 25.3329C54.6401 25.2622 54.6261 25.1923 54.5988 25.127C54.5715 25.0618 54.5316 25.0027 54.4812 24.9531C54.4309 24.9035 54.3712 24.8643 54.3056 24.838C54.24 24.8116 54.1699 24.7986 54.0992 24.7996H53.8034L49.2013 14.6037C49.1349 14.4568 49.0258 14.3333 48.888 14.2494C48.7503 14.1656 48.5904 14.1254 48.4294 14.1339ZM48.5211 16.9871L50.6034 21.5996H46.7002L48.5211 16.9871Z" fill="white"/>
<g clip-path="url(#clip1_1_421)">
<path opacity="0.6" d="M8.42941 14.1339C8.27645 14.1422 8.12909 14.1942 8.00481 14.2838C7.88054 14.3733 7.7846 14.4967 7.72836 14.6392L3.71691 24.7996H3.43253C3.36186 24.7986 3.29169 24.8116 3.22611 24.838C3.16052 24.8643 3.10083 24.9035 3.0505 24.9531C3.00017 25.0027 2.96021 25.0618 2.93293 25.127C2.90565 25.1923 2.8916 25.2622 2.8916 25.3329C2.8916 25.4036 2.90565 25.4736 2.93293 25.5388C2.96021 25.604 3.00017 25.6631 3.0505 25.7127C3.10083 25.7624 3.16052 25.8015 3.22611 25.8278C3.29169 25.8542 3.36186 25.8672 3.43253 25.8662H5.56586C5.63654 25.8672 5.7067 25.8542 5.77229 25.8278C5.83787 25.8015 5.89756 25.7624 5.94789 25.7127C5.99822 25.6631 6.03819 25.604 6.06547 25.5388C6.09275 25.4736 6.10679 25.4036 6.10679 25.3329C6.10679 25.2622 6.09275 25.1923 6.06547 25.127C6.03819 25.0618 5.99822 25.0027 5.94789 24.9531C5.89756 24.9035 5.83787 24.8643 5.77229 24.838C5.7067 24.8116 5.63654 24.7986 5.56586 24.7996H5.4367L6.28045 22.661C6.30873 22.6651 6.3373 22.6668 6.36586 22.6662H11.0846L12.0471 24.7996H11.9659C11.8952 24.7986 11.825 24.8116 11.7594 24.838C11.6939 24.8643 11.6342 24.9035 11.5838 24.9531C11.5335 25.0027 11.4935 25.0618 11.4663 25.127C11.439 25.1923 11.4249 25.2622 11.4249 25.3329C11.4249 25.4036 11.439 25.4736 11.4663 25.5388C11.4935 25.604 11.5335 25.6631 11.5838 25.7127C11.6342 25.7624 11.6939 25.8015 11.7594 25.8278C11.825 25.8542 11.8952 25.8672 11.9659 25.8662H14.0992C14.1699 25.8672 14.24 25.8542 14.3056 25.8278C14.3712 25.8015 14.4309 25.7624 14.4812 25.7127C14.5316 25.6631 14.5715 25.604 14.5988 25.5388C14.6261 25.4736 14.6401 25.4036 14.6401 25.3329C14.6401 25.2622 14.6261 25.1923 14.5988 25.127C14.5715 25.0618 14.5316 25.0027 14.4812 24.9531C14.4309 24.9035 14.3712 24.8643 14.3056 24.838C14.24 24.8116 14.1699 24.7986 14.0992 24.7996H13.8034L9.20128 14.6037C9.13494 14.4568 9.02575 14.3333 8.88801 14.2494C8.75027 14.1656 8.59042 14.1254 8.42941 14.1339ZM11.9659 15.1996C11.8952 15.1986 11.825 15.2116 11.7594 15.238C11.6939 15.2643 11.6342 15.3035 11.5838 15.3531C11.5335 15.4027 11.4935 15.4618 11.4663 15.527C11.439 15.5923 11.4249 15.6622 11.4249 15.7329C11.4249 15.8036 11.439 15.8736 11.4663 15.9388C11.4935 16.004 11.5335 16.0631 11.5838 16.1127C11.6342 16.1624 11.6939 16.2015 11.7594 16.2278C11.825 16.2542 11.8952 16.2672 11.9659 16.2662H16.2325C16.3032 16.2672 16.3734 16.2542 16.439 16.2278C16.5045 16.2015 16.5642 16.1624 16.6146 16.1127C16.6649 16.0631 16.7049 16.004 16.7321 15.9388C16.7594 15.8736 16.7735 15.8036 16.7735 15.7329C16.7735 15.6622 16.7594 15.5923 16.7321 15.527C16.7049 15.4618 16.6649 15.4027 16.6146 15.3531C16.5642 15.3035 16.5045 15.2643 16.439 15.238C16.3734 15.2116 16.3032 15.1986 16.2325 15.1996H11.9659ZM8.52107 16.9871L10.6034 21.5996H6.70024L8.52107 16.9871Z" fill="white"/>
</g>
<defs>
<clipPath id="clip0_1_421">
<rect width="16" height="16" fill="white" transform="translate(80.7666 12)"/>
</clipPath>
<clipPath id="clip1_1_421">
<rect width="16" height="16" fill="white" transform="translate(0.766602 12)"/>
</clipPath>
</defs>
</svg>
