<svg width="21" height="20" viewBox="0 0 21 20" fill="none" xmlns="http://www.w3.org/2000/svg">
<path fill-rule="evenodd" clip-rule="evenodd" d="M10.7666 18C15.1849 18 18.7666 14.4183 18.7666 10C18.7666 5.58172 15.1849 2 10.7666 2C6.34832 2 2.7666 5.58172 2.7666 10C2.7666 14.4183 6.34832 18 10.7666 18ZM10.7666 3C10.1098 3 9.35984 3.59025 8.74482 4.90814C8.52733 5.37419 8.33832 5.90978 8.18597 6.5H13.3472C13.1949 5.90978 13.0059 5.37419 12.7884 4.90814C12.1734 3.59025 11.4234 3 10.7666 3ZM7.83864 4.48526C7.56224 5.07753 7.33159 5.75696 7.15591 6.5H4.70308C5.53955 5.05399 6.87842 3.93497 8.48102 3.38163C8.23957 3.71222 8.02488 4.08617 7.83864 4.48526ZM6.95925 7.5H4.22623C3.92928 8.2764 3.7666 9.1192 3.7666 10C3.7666 10.8808 3.92928 11.7236 4.22623 12.5H6.95925C6.83383 11.7117 6.7666 10.8707 6.7666 10C6.7666 9.12934 6.83383 8.28832 6.95925 7.5ZM7.15591 13.5H4.70308C5.53955 14.946 6.87842 16.065 8.48102 16.6184C8.23957 16.2878 8.02488 15.9138 7.83864 15.5147C7.56224 14.9225 7.33159 14.243 7.15591 13.5ZM8.18597 13.5H13.3472C13.1949 14.0902 13.0059 14.6258 12.7884 15.0919C12.1734 16.4097 11.4234 17 10.7666 17C10.1098 17 9.35984 16.4097 8.74482 15.0919C8.52733 14.6258 8.33832 14.0902 8.18597 13.5ZM13.5604 12.5H7.97277C7.84005 11.7253 7.7666 10.8833 7.7666 10C7.7666 9.11669 7.84005 8.27472 7.97277 7.5H13.5604C13.6932 8.27472 13.7666 9.11669 13.7666 10C13.7666 10.8833 13.6932 11.7253 13.5604 12.5ZM14.3773 13.5C14.2016 14.243 13.971 14.9225 13.6946 15.5147C13.5083 15.9138 13.2936 16.2878 13.0522 16.6184C14.6548 16.065 15.9937 14.946 16.8301 13.5H14.3773ZM17.307 12.5H14.574C14.6994 11.7117 14.7666 10.8707 14.7666 10C14.7666 9.12934 14.6994 8.28832 14.574 7.5H17.307C17.6039 8.2764 17.7666 9.1192 17.7666 10C17.7666 10.8808 17.6039 11.7236 17.307 12.5ZM13.0522 3.38163C14.6548 3.93497 15.9937 5.05399 16.8301 6.5H14.3773C14.2016 5.75696 13.971 5.07753 13.6946 4.48526C13.5083 4.08617 13.2936 3.71222 13.0522 3.38163Z" fill="white"/>
</svg>
