<svg width="27" height="25" viewBox="0 0 27 25" fill="none" xmlns="http://www.w3.org/2000/svg">
<path fill-rule="evenodd" clip-rule="evenodd" d="M14.0625 7.50006C10.0713 7.50006 6.75 10.4523 6.75 14.0001C6.75 17.5478 10.0713 20.5001 14.0625 20.5001C18.0537 20.5001 21.375 17.5478 21.375 14.0001C21.375 13.4478 21.8787 13.0001 22.5 13.0001C23.1213 13.0001 23.625 13.4478 23.625 14.0001C23.625 18.6523 19.2963 22.5001 14.0625 22.5001C8.82868 22.5001 4.5 18.6523 4.5 14.0001C4.5 9.34778 8.82868 5.50006 14.0625 5.50006H18.5625C19.1838 5.50006 19.6875 5.94778 19.6875 6.50006C19.6875 7.05235 19.1838 7.50006 18.5625 7.50006H14.0625Z" fill="#888FA7"/>
<path fill-rule="evenodd" clip-rule="evenodd" d="M14.392 2.79295C14.8313 2.40243 15.5437 2.40243 15.983 2.79295L19.358 5.79295C19.7973 6.18348 19.7973 6.81664 19.358 7.20717L15.983 10.2072C15.5437 10.5977 14.8313 10.5977 14.392 10.2072C13.9527 9.81664 13.9527 9.18348 14.392 8.79295L16.9715 6.50006L14.392 4.20717C13.9527 3.81664 13.9527 3.18348 14.392 2.79295Z" fill="#888FA7"/>
</svg>
