<svg width="18" height="21" viewBox="0 0 18 21" fill="none" xmlns="http://www.w3.org/2000/svg">
<path d="M9 0.867188C4.03067 0.867188 0 5.18127 0 10.5C0 15.8187 4.03067 20.1328 9 20.1328C13.9693 20.1328 18 15.8187 18 10.5C18 5.18127 13.9693 0.867188 9 0.867188ZM9.97546 15.9566C9.97546 16.2915 9.71779 16.5673 9.40491 16.5673H7.95092C7.63804 16.5673 7.38037 16.2915 7.38037 15.9566V14.952C7.38037 14.6171 7.63804 14.3413 7.95092 14.3413H9.40491C9.71779 14.3413 9.97546 14.6171 9.97546 14.952V15.9566ZM12.2761 9.96813C11.8896 10.5394 11.411 10.9925 10.8221 11.3274C10.4908 11.5637 10.2699 11.8001 10.1595 12.0759C10.0859 12.2532 10.0307 12.4896 9.99387 12.7654C9.97546 12.9821 9.79141 13.1397 9.58896 13.1397H7.80368C7.56442 13.1397 7.38037 12.923 7.39877 12.6866C7.43558 12.1547 7.56442 11.741 7.76687 11.4259C8.02454 11.0516 8.48466 10.5985 9.14724 10.106C9.49693 9.86963 9.7546 9.59385 9.95706 9.25896C10.1595 8.92408 10.2515 8.5301 10.2515 8.07702C10.2515 7.62395 10.1411 7.24966 9.90184 6.97388C9.66258 6.69809 9.34969 6.5602 8.92638 6.5602C8.57669 6.5602 8.30061 6.67839 8.06135 6.89508C7.91411 7.03298 7.82209 7.21027 7.76687 7.44665C7.69325 7.72244 7.45399 7.89973 7.17791 7.89973L5.52147 7.86033C5.31902 7.86033 5.15337 7.66334 5.17178 7.44665C5.22699 6.5011 5.57669 5.79194 6.18405 5.27976C6.88344 4.70849 7.78528 4.41301 8.92638 4.41301C10.1411 4.41301 11.0982 4.74789 11.7975 5.39796C12.4969 6.04803 12.8466 6.93448 12.8466 8.05732C12.8466 8.76649 12.6442 9.39686 12.2761 9.96813Z" fill="#888FA7"/>
</svg>
